<?xml version="1.0" encoding="UTF-8" standalone="no"?>
<!-- Created with Inkscape (http://www.inkscape.org/) -->

<svg
   id="svg5"
   width="88mm"
   height="30mm"
   version="1.1"
   viewBox="0 0 88 30"
   sodipodi:docname="fix.svg"
   inkscape:version="1.1.1 (3bf5ae0d25, 2021-09-20)"
   xmlns:inkscape="http://www.inkscape.org/namespaces/inkscape"
   xmlns:sodipodi="http://sodipodi.sourceforge.net/DTD/sodipodi-0.dtd"
   xmlns="http://www.w3.org/2000/svg"
   xmlns:svg="http://www.w3.org/2000/svg">
  <sodipodi:namedview
     id="namedview20"
     pagecolor="#ffffff"
     bordercolor="#666666"
     borderopacity="1.0"
     inkscape:pageshadow="2"
     inkscape:pageopacity="0.0"
     inkscape:pagecheckerboard="0"
     inkscape:document-units="mm"
     showgrid="false"
     inkscape:zoom="3.1810133"
     inkscape:cx="164.41302"
     inkscape:cy="19.019097"
     inkscape:window-width="1920"
     inkscape:window-height="1017"
     inkscape:window-x="1912"
     inkscape:window-y="-8"
     inkscape:window-maximized="1"
     inkscape:current-layer="layer1-0" />
  <defs
     id="defs4">
    <style
       type="text/css"
       id="style2"><![CDATA[
      .topright,
.botright,
.topleft,
.botleft {
    visibility: hidden;
	
}

svg:hover .botleft,
svg:hover .botright,
svg:hover .topright,
svg:hover .topleft{
   visibility: visible;
   
}

    ]]></style>
  </defs>
  <g
     id="layer1"><text
   id="text31363"
   transform="scale(.26458)"
   fill="#ffffff"
   font-family="sans-serif"
   font-size="40px"
   style="line-height:1.25;shape-inside:url(#rect31365);white-space:pre"
   xml:space="preserve" />
<text
   id="text32733"
   transform="scale(.26458)"
   fill="#ffffff"
   font-family="sans-serif"
   font-size="40px"
   style="line-height:1.25;shape-inside:url(#rect32735);white-space:pre"
   xml:space="preserve" />
<g
   id="layer1-0"
   transform="translate(-88.142 -128.16)">
  //the great woen <text
   id="text2963-5"
   transform="matrix(.53832 0 0 .51569 175.1 104.45)"
   x="-145.28725"
   y="80.318504"
   fill="#000000"
   font-family="sans-serif"
   font-size="10.583px"
   stroke-width=".26458"
   style="inline-size:148.56;line-height:1.25;white-space:pre;stroke-width:0.26381543;stroke-miterlimit:4;stroke-dasharray:none;fill:#ffffff;fill-opacity:1"
   xml:space="preserve"><tspan
     x="-145.28725"
     y="80.318504"
     id="tspan16318"><tspan
       style="font-size:12.7px;font-family:'Trajan Pro 3'"
       id="tspan16316">The Great Women</tspan></tspan></text>
<text
   id="text31363-5"
   transform="scale(.26458)"
   fill="#ffffff"
   font-family="sans-serif"
   font-size="40px"
   style="line-height:1.25;shape-inside:url(#rect31365-9);white-space:pre"
   xml:space="preserve" />
<text
   id="text32733-1"
   transform="scale(.26458)"
   fill="#ffffff"
   font-family="sans-serif"
   font-size="40px"
   style="line-height:1.25;shape-inside:url(#rect32735-3);white-space:pre"
   xml:space="preserve" />
</g>

 //bot left <path
   class="botleft"
   id="path2465-1-4"
   d="m2.5054 26.252s-0.55509 0.62678-0.82126-1.0491m-0.89807-0.73994s0.54495-0.20979 0.63443-0.09128m0.89665 0.9166s-0.67856 0.08648-0.97334-0.41413c0 0-0.29006-0.49685-0.55774-0.41126m2.3365 2.5652s-0.79188-0.43781-0.83133-2.2168m1.1299 1.6536s-0.37033 0.35064-0.29854 0.56316m-0.252-2.2066 0.24681-0.012288m-0.24681 0.01229m-1.0599-1.183s-0.83163 0.50985-1.1183 0.21296c0 0 1.1473 1.0568 2.1782 0.97005m0.44365 1.3419s-0.40668-1.0715-0.05513-2.0998m0.85874 3.1855s-0.54168-0.10897-0.80369-1.0857m0.77824 0.18753s-0.32966 0.39298 0.025537 0.89813m1.7931-1.4666s-1.1511-0.09693-1.8185 0.56845m3.5106-1.2571s-0.82352 0.73508-1.6933 0.68936m0.44571-5.5661s3.9576 2.4492 1.2476 4.8767m-0.34467-2.8364c-2.6104 3.9291-6.3112 0.76864-6.3112 0.76864s2.141 0.15273 2.6221-2.1704c0.4811-2.3232 4.5077-0.47427 3.6891 1.4018zm19.699-1.6503 0.37862-0.69415 0.12621 0.69415m12.179 1.199 0.37862-0.69415 0.12621 0.69415m-23.601 0.0631 0.37862-0.69414 0.12621 0.69414m23.853-0.12424 0.37863 0.69414 0.12621-0.69414m-11.106-1.199 0.37862 0.69414 0.12621-0.69414m-5.9949 0.18931 0.37862 0.69415 0.12621-0.69415m-10.917 1.199 0.37862 0.69415 0.12621-0.69415m-4.9221-0.31552 0.37862 0.69414 0.12621-0.69414m26.074-0.34805c2.804 0.54275 5.4519 0.70284 7.7054 0.68261m-22.358-0.68261c7.9542-1.5396 14.652 0 14.652 0m-29.305 0c7.9542 1.5396 14.652 0 14.652 0m14.64 0c2.7707-0.88694 5.3888-1.1555 7.6241-1.129m-22.264 1.129c7.9475 2.5441 14.64 0 14.64 0m-29.28 0c7.9475-2.5441 14.64 0 14.64 0"
   fill="none"
   stroke="#ffffff"
   stroke-width=".31362"
   style="stroke:#ffffff;stroke-opacity:1;fill:none" />

 //top left <path
   class="topleft"
   id="path2465-1-4-4"
   d="m 2.5797,3.4985 c 0,0 -0.55509,-0.62678 -0.82126,1.0491 M 0.86037,5.28754 c 0,0 0.54495,0.20979 0.63443,0.09128 m 0.89665,-0.9166 c 0,0 -0.67856,-0.08648 -0.97334,0.41413 0,0 -0.29006,0.49685 -0.55774,0.41126 m 2.3365,-2.5652 c 0,0 -0.79188,0.43781 -0.83133,2.2168 m 1.1299,-1.6536 c 0,0 -0.37033,-0.35064 -0.29854,-0.56316 m -0.252,2.2066 0.24681,0.012288 M 1.885,6.112048 c 0,0 -0.83163,-0.50985 -1.1183,-0.21296 0,0 1.1473,-1.0568 2.1782,-0.97005 m 0.44365,-1.3419 c 0,0 -0.40668,1.0715 -0.05513,2.0998 m 0.85874,-3.1855 c 0,0 -0.54168,0.10897 -0.80369,1.0857 m 0.77824,-0.18753 c 0,0 -0.32966,-0.39298 0.025537,-0.89813 m 1.7931,1.4666 c 0,0 -1.1511,0.09693 -1.8185,-0.56845 m 3.5106,1.2571 c 0,0 -0.82352,-0.73508 -1.6933,-0.68936 m 0.44571,5.5661 c 0,0 3.9576,-2.4492 1.2476,-4.8767 m -0.34468,2.8364 c -2.6104,-3.9291 -6.3112,-0.76864 -6.3112,-0.76864 0,0 2.141,-0.15273 2.6221,2.1704 0.4811,2.3232 4.5077,0.47427 3.6891,-1.4018 z m 23.537,1.6923 0.37862,-0.69414 0.12621,0.69414 m 11.548,-1.199 0.37862,-0.69414 0.12621,0.69414 m -27.703,0.00197 0.37863,-0.69415 0.12621,0.69415 m 23.916,0.1262 0.37863,0.69415 0.12621,-0.69415 m -12.558,1.3252 0.37863,0.69415 0.12621,-0.69415 m -4.9852,-0.50483 0.37862,0.69414 0.12621,-0.69414 m -8.8977,-0.94656 0.37863,0.69414 0.1262,-0.69414 m -5.0457,0.28298 0.37862,0.69415 0.12621,-0.69415 m 25.633,0.37419 c 2.6861,-0.51993 5.229,-0.6887 7.4191,-0.68419 m -22.071,0.68419 c 7.9542,1.5396 14.652,0 14.652,0 m -29.305,0 C 11.824373,7.8107194 15.768328,7.8813231 18.475076,8.1208716 20.759724,8.323064 22.162947,8.645618 22.162947,8.645618 m 14.64,0 c 2.7042,0.86565 5.2631,1.1422 7.4626,1.1304 m -22.103,-1.1304 c 7.9475,-2.5441 14.64,0 14.64,0 m -29.28,0 c 3.197198,0.8168736 6.382288,1.2829875 9.53812,1.0500181 1.710128,-0.1262447 3.411664,-0.4577749 5.10188,-1.0500181"
   fill="none"
   stroke="#ffffff"
   stroke-width="0.31362"
   style="fill:none;fill-opacity:1;stroke:#ffffff;stroke-opacity:1"
   sodipodi:nodetypes="ccccccccccccccccccccccccccccccccccccccccccccccccccccccccccccccsccccccsc" />

  //top right<path
   class="topright"
   id="path2465-1-4-4-1"
   d="m85.538 3.4908s0.55509-0.62678 0.82126 1.0491m0.89807 0.73994s-0.54495 0.20979-0.63443 0.09128m-0.89665-0.9166s0.67856-0.08648 0.97334 0.41413c0 0 0.29006 0.49685 0.55774 0.41126m-2.3365-2.5652s0.79188 0.43781 0.83133 2.2168m-1.1299-1.6536s0.37033-0.35064 0.29854-0.56316m0.252 2.2066-0.24681 0.012288m0.24681-0.01229m1.0599 1.183s0.83163-0.50985 1.1183-0.21296c0 0-1.1473-1.0568-2.1782-0.97005m-0.44365-1.3419s0.40668 1.0715 0.05513 2.0998m-0.85874-3.1855s0.54168 0.10897 0.80369 1.0857m-0.77824-0.18753s0.32966-0.39298-0.02554-0.89813m-1.7931 1.4666s1.1511 0.09693 1.8185-0.56845m-3.5106 1.2571s0.82352-0.73508 1.6933-0.68936m-0.44571 5.5661s-3.9576-2.4492-1.2476-4.8767m0.34468 2.8364c2.6104-3.9291 6.3112-0.76864 6.3112-0.76864s-2.141-0.15273-2.6221 2.1704c-0.4811 2.3232-4.5077 0.47427-3.6891-1.4018zm-9.2132 0.31171 0.37863-0.69414 0.12621 0.69414m-17.227 1.3883 0.37862-0.69414 0.12621 0.69414m-8.5822-1.0728 0.37863-0.69414 0.1262 0.69414m27.829-0.12424 0.37862 0.69414 0.12621-0.69414m-6.2473 0.1262 0.37862 0.69415 0.12621-0.69415m-8.3928 1.2621 0.37862 0.69414 0.12621-0.69414m-5.427-0.06311 0.37862 0.69415 0.12621-0.69415m9.0636-0.66801c7.9542-1.5396 14.652 0 14.652 0m-29.305 0c7.9542 1.5396 14.652 0 14.652 0m-21.886-0.68419c4.2952 9e-3 7.2333 0.68419 7.2333 0.68419m14.616 0c7.9475 2.5441 14.64 0 14.64 0m-29.28 0c7.9475-2.5441 14.64 0 14.64 0m-21.818 1.1304c4.2646-0.023 7.1776-1.1304 7.1776-1.1304"
   fill="none"
   stroke="#ffffff"
   stroke-width=".31362"
   style="stroke:#ffffff;stroke-opacity:1;fill:none" />

  //bot right<path
   class="botright"
   id="path2465-1-4-4-7"
   d="m85.127 26.507s0.55509 0.62678 0.82126-1.0491m0.89807-0.73994s-0.54495-0.20979-0.63443-0.09128m-0.89665 0.9166s0.67856 0.08648 0.97334-0.41413c0 0 0.29006-0.49685 0.55774-0.41126m-2.3365 2.5652s0.79188-0.43781 0.83133-2.2168m-1.1299 1.6536s0.37033 0.35064 0.29854 0.56316m0.252-2.2066-0.24681-0.01229m0.24681 0.01229m1.0599-1.183s0.83163 0.50985 1.1183 0.21296c0 0-1.1473 1.0568-2.1782 0.97005m-0.44365 1.3419s0.40668-1.0715 0.05513-2.0998m-0.85874 3.1855s0.54168-0.10897 0.80369-1.0857m-0.77824 0.18753s0.32966 0.39298-0.02554 0.89813m-1.7931-1.4666s1.1511-0.09693 1.8185 0.56845m-3.5106-1.2571s0.82352 0.73508 1.6933 0.68936m-0.44571-5.5661s-3.9576 2.4492-1.2476 4.8767m0.34468-2.8364c2.6104 3.9291 6.3112 0.76864 6.3112 0.76864s-2.141 0.15273-2.6221-2.1704c-0.4811-2.3232-4.5077-0.47427-3.6891 1.4018zm-26.66-1.9053 0.37863-0.69415 0.1262 0.69415m19.057 1.2621 0.37862-0.69414 0.12621 0.69414m-29.091 0.06311 0.37863-0.69415 0.12621 0.69415m30.038-0.06114 0.37862 0.69414 0.12621-0.69414m-6.4997-0.06311 0.37862 0.69415 0.12621-0.69415m-9.1501-1.0728 0.37862 0.69415 0.12621-0.69415m-4.4804-0.0631 0.37863 0.69414 0.12621-0.69414m-10.286 1.199 0.37862 0.69414 0.12621-0.69414m18.526-0.60047c7.9542 1.5396 14.652 0 14.652 0m-29.305 0c7.9542-1.5396 14.652 0 14.652 0m-21.599 0.68261c4.1389-0.0372 6.947-0.68261 6.947-0.68261m14.616 0c7.9475-2.5441 14.64 0 14.64 0m-29.28 0c7.9475 2.5441 14.64 0 14.64 0m-21.656-1.129c4.1764 0.0495 7.0161 1.129 7.0161 1.129"
   fill="none"
   stroke="#ffffff"
   stroke-width=".31362"
   style="stroke:#ffffff;stroke-opacity:1;fill:none" />
</g>
</svg>
