<?xml version="1.0" encoding="UTF-8" standalone="no"?>
<!-- Created with Inkscape (http://www.inkscape.org/) -->

<svg
   width="88mm"
   height="46mm"
   viewBox="0 0 88 46"
   version="1.1"
   id="svg5"
   inkscape:version="1.1.1 (3bf5ae0d25, 2021-09-20)"
   sodipodi:docname="greatwomen.svg"
   xmlns:inkscape="http://www.inkscape.org/namespaces/inkscape"
   xmlns:sodipodi="http://sodipodi.sourceforge.net/DTD/sodipodi-0.dtd"
   xmlns="http://www.w3.org/2000/svg"
   xmlns:svg="http://www.w3.org/2000/svg">
  <sodipodi:namedview
     id="namedview7"
     pagecolor="#ffffff"
     bordercolor="#666666"
     borderopacity="1.0"
     inkscape:pageshadow="2"
     inkscape:pageopacity="0.0"
     inkscape:pagecheckerboard="0"
     inkscape:document-units="mm"
     showgrid="false"
     inkscape:zoom="2.096401"
     inkscape:cx="149.06499"
     inkscape:cy="89.916004"
     inkscape:window-width="1920"
     inkscape:window-height="1017"
     inkscape:window-x="1912"
     inkscape:window-y="-8"
     inkscape:window-maximized="1"
     inkscape:current-layer="layer1"
     units="mm"
     height="296mm" />
  <defs
     id="defs2">
    <rect
       x="-557.8869"
       y="324.47836"
       width="2.6983645"
       height="91.069809"
       id="rect32735" />
    <rect
       x="-547.09344"
       y="303.56601"
       width="92.418991"
       height="91.069809"
       id="rect31365" />
    <rect
       x="-557.8869"
       y="324.47836"
       width="2.6983645"
       height="91.069809"
       id="rect32735-3" />
    <rect
       x="-547.09344"
       y="303.56601"
       width="92.418991"
       height="91.069809"
       id="rect31365-9" />
  </defs>
  <g
     inkscape:label="Layer 1"
     inkscape:groupmode="layer"
     id="layer1">
    <text
       xml:space="preserve"
       transform="scale(0.26458333)"
       id="text31363"
       style="font-style:normal;font-weight:normal;font-size:40px;line-height:1.25;font-family:sans-serif;white-space:pre;shape-inside:url(#rect31365);fill:#000000;fill-opacity:1;stroke:none" />
    <text
       xml:space="preserve"
       transform="scale(0.26458333)"
       id="text32733"
       style="font-style:normal;font-weight:normal;font-size:40px;line-height:1.25;font-family:sans-serif;white-space:pre;shape-inside:url(#rect32735);fill:#000000;fill-opacity:1;stroke:none" />
    <g
       inkscape:label="Layer 1"
       id="layer1-0"
       transform="translate(-88.141745,-128.15992)">
      <text
         xml:space="preserve"
         style="font-style:normal;font-weight:normal;font-size:10.5833px;line-height:1.25;font-family:sans-serif;white-space:pre;inline-size:148.56;fill:#000000;fill-opacity:1;stroke:none;stroke-width:0.264583"
         x="-145.28725"
         y="80.318504"
         id="text2963-5"
         transform="matrix(0.53831657,0,0,0.51568945,174.85123,112.52478)"><tspan
           x="-145.28725"
           y="80.318504"
           id="tspan3524"><tspan
             style="font-size:12.7px;font-family:'Trajan Pro 3';-inkscape-font-specification:'Trajan Pro 3, Normal'"
             id="tspan3522">The Great Women</tspan></tspan></text>
      <text
         xml:space="preserve"
         transform="scale(0.26458333)"
         id="text31363-5"
         style="font-style:normal;font-weight:normal;font-size:40px;line-height:1.25;font-family:sans-serif;white-space:pre;shape-inside:url(#rect31365-9);fill:#000000;fill-opacity:1;stroke:none" />
      <text
         xml:space="preserve"
         transform="scale(0.26458333)"
         id="text32733-1"
         style="font-style:normal;font-weight:normal;font-size:40px;line-height:1.25;font-family:sans-serif;white-space:pre;shape-inside:url(#rect32735-3);fill:#000000;fill-opacity:1;stroke:none" />
      <path
         style="fill:none;stroke:#000000;stroke-width:0.542;stroke-linecap:butt;stroke-linejoin:miter;stroke-miterlimit:4;stroke-dasharray:none;stroke-opacity:1"
         d="m 95.413809,144.88276 c 7.947521,2.54412 14.640181,0 14.640181,0 0,0 0,0 0,0"
         id="path6328" />
      <path
         style="fill:none;stroke:#000000;stroke-width:0.542;stroke-linecap:butt;stroke-linejoin:miter;stroke-miterlimit:4;stroke-dasharray:none;stroke-opacity:1"
         d="m 110.05399,144.88276 c 7.94752,-2.54411 14.64017,0 14.64017,0 0,0 0,0 0,0"
         id="path6328-7" />
      <path
         style="fill:none;stroke:#000000;stroke-width:0.542;stroke-linecap:butt;stroke-linejoin:miter;stroke-miterlimit:4;stroke-dasharray:none;stroke-opacity:1"
         d="m 124.69416,144.88276 c 7.94753,2.54412 14.64018,0 14.64018,0 0,0 0,0 0,0"
         id="path6328-7-8" />
      <path
         style="fill:none;stroke:#000000;stroke-width:0.542;stroke-linecap:butt;stroke-linejoin:miter;stroke-miterlimit:4;stroke-dasharray:none;stroke-opacity:1"
         d="m 139.33434,144.88276 c 7.94752,-2.54411 14.64018,0 14.64018,0 0,0 0,0 0,0"
         id="path6328-7-8-2" />
      <path
         style="fill:none;stroke:#000000;stroke-width:0.542;stroke-linecap:butt;stroke-linejoin:miter;stroke-miterlimit:4;stroke-dasharray:none;stroke-opacity:1"
         d="m 153.97452,144.88276 c 7.94752,2.54412 14.64017,0 14.64017,0 0,0 0,0 0,0"
         id="path6328-7-8-2-1" />
      <path
         style="fill:none;stroke:#000000;stroke-width:0.543;stroke-linecap:butt;stroke-linejoin:miter;stroke-miterlimit:4;stroke-dasharray:none;stroke-opacity:1"
         d="m 95.158037,157.50804 c 7.947523,-2.54412 14.640173,0 14.640173,0 0,0 0,0 0,0"
         id="path6328-76" />
      <path
         style="fill:none;stroke:#000000;stroke-width:0.543;stroke-linecap:butt;stroke-linejoin:miter;stroke-miterlimit:4;stroke-dasharray:none;stroke-opacity:1"
         d="m 109.79821,157.50804 c 7.94753,2.54411 14.64018,0 14.64018,0 0,0 0,0 0,0"
         id="path6328-7-7" />
      <path
         style="fill:none;stroke:#000000;stroke-width:0.543;stroke-linecap:butt;stroke-linejoin:miter;stroke-miterlimit:4;stroke-dasharray:none;stroke-opacity:1"
         d="m 124.43839,157.50804 c 7.94753,-2.54412 14.64018,0 14.64018,0 0,0 0,0 0,0"
         id="path6328-7-8-3" />
      <path
         style="fill:none;stroke:#000000;stroke-width:0.543;stroke-linecap:butt;stroke-linejoin:miter;stroke-miterlimit:4;stroke-dasharray:none;stroke-opacity:1"
         d="m 139.07857,157.50804 c 7.94752,2.54411 14.64017,0 14.64017,0 0,0 0,0 0,0"
         id="path6328-7-8-2-8" />
      <path
         style="fill:none;stroke:#000000;stroke-width:0.543;stroke-linecap:butt;stroke-linejoin:miter;stroke-miterlimit:4;stroke-dasharray:none;stroke-opacity:1"
         d="m 153.71874,157.50804 c 7.94753,-2.54412 14.64018,0 14.64018,0 0,0 0,0 0,0"
         id="path6328-7-8-2-1-0" />
      <ellipse
         style="fill:#000000;fill-opacity:0;stroke-width:1;stroke-linejoin:miter;stroke-miterlimit:4;stroke-dasharray:none"
         id="path7644"
         cx="-0.37862509"
         cy="66.51181"
         rx="7.69871"
         ry="4.4172926" />
      <ellipse
         style="fill:#000000;fill-opacity:0;stroke-width:1;stroke-linejoin:miter;stroke-miterlimit:4;stroke-dasharray:none"
         id="path7646"
         cx="3.533834"
         cy="71.055305"
         rx="2.2717505"
         ry="1.1358752" />
      <path
         style="fill:#000000;fill-opacity:0;stroke-width:1;stroke-linejoin:miter;stroke-miterlimit:4;stroke-dasharray:none"
         id="path7648"
         sodipodi:type="arc"
         sodipodi:cx="12.494627"
         sodipodi:cy="64.49247"
         sodipodi:rx="22.591297"
         sodipodi:ry="6.689043"
         sodipodi:start="0"
         sodipodi:end="0.57320943"
         sodipodi:arc-type="slice"
         d="m 35.085924,64.49247 a 22.591297,6.689043 0 0 1 -3.610886,3.627677 L 12.494627,64.49247 Z" />
      <path
         style="fill:#000000;fill-opacity:0;stroke-width:3.77953;stroke-linejoin:miter;stroke-miterlimit:4;stroke-dasharray:none"
         id="path7650"
         sodipodi:type="arc"
         sodipodi:cx="12.620836"
         sodipodi:cy="57.424805"
         sodipodi:rx="0.75725019"
         sodipodi:ry="1.388292"
         sodipodi:start="0"
         sodipodi:end="0.57320976"
         sodipodi:arc-type="slice"
         d="m 13.378086,57.424805 a 0.75725019,1.388292 0 0 1 -0.121035,0.752914 l -0.636215,-0.752914 z" />
      <path
         style="fill:none;stroke:#000000;stroke-width:0.188172px;stroke-linecap:butt;stroke-linejoin:miter;stroke-opacity:1"
         d="m 95.145807,157.50804 c 7.954163,1.53962 14.652403,0 14.652403,0 0,0 0,0 0,0"
         id="path6328-1" />
      <path
         style="fill:none;stroke:#000000;stroke-width:0.188172px;stroke-linecap:butt;stroke-linejoin:miter;stroke-opacity:1"
         d="m 109.79821,157.50804 c 7.95417,-1.53963 14.65241,0 14.65241,0 0,0 0,0 0,0"
         id="path6328-7-6" />
      <path
         style="fill:none;stroke:#000000;stroke-width:0.188172px;stroke-linecap:butt;stroke-linejoin:miter;stroke-opacity:1"
         d="m 124.45062,157.50804 c 7.95416,1.53962 14.6524,0 14.6524,0 0,0 0,0 0,0"
         id="path6328-7-8-6" />
      <path
         style="fill:none;stroke:#000000;stroke-width:0.188172px;stroke-linecap:butt;stroke-linejoin:miter;stroke-opacity:1"
         d="m 139.10302,157.50804 c 7.95417,-1.53963 14.65241,0 14.65241,0 0,0 0,0 0,0"
         id="path6328-7-8-2-0" />
      <path
         style="fill:none;stroke:#000000;stroke-width:0.188172px;stroke-linecap:butt;stroke-linejoin:miter;stroke-opacity:1"
         d="m 153.75543,157.50804 c 7.95417,1.53962 14.65241,0 14.65241,0 0,0 0,0 0,0"
         id="path6328-7-8-2-1-4" />
      <path
         style="fill:none;stroke:#000000;stroke-width:0.188172px;stroke-linecap:butt;stroke-linejoin:miter;stroke-opacity:1"
         d="m 95.401578,144.88276 c 7.954162,-1.53963 14.652412,0 14.652412,0 0,0 0,0 0,0"
         id="path6328-1-1" />
      <path
         style="fill:none;stroke:#000000;stroke-width:0.188172px;stroke-linecap:butt;stroke-linejoin:miter;stroke-opacity:1"
         d="m 110.05399,144.88276 c 7.95416,1.53963 14.6524,0 14.6524,0 0,0 0,0 0,0"
         id="path6328-7-6-0" />
      <path
         style="fill:none;stroke:#000000;stroke-width:0.188172px;stroke-linecap:butt;stroke-linejoin:miter;stroke-opacity:1"
         d="m 124.70639,144.88276 c 7.95416,-1.53963 14.65241,0 14.65241,0 0,0 0,0 0,0"
         id="path6328-7-8-6-8" />
      <path
         style="fill:none;stroke:#000000;stroke-width:0.188172px;stroke-linecap:butt;stroke-linejoin:miter;stroke-opacity:1"
         d="m 139.3588,144.88276 c 7.95416,1.53963 14.6524,0 14.6524,0 0,0 0,0 0,0"
         id="path6328-7-8-2-0-5" />
      <path
         style="fill:none;stroke:#000000;stroke-width:0.188172px;stroke-linecap:butt;stroke-linejoin:miter;stroke-opacity:1"
         d="m 154.0112,144.88276 c 7.95417,-1.53963 14.65241,0 14.65241,0 0,0 0,0 0,0"
         id="path6328-7-8-2-1-4-8" />
      <path
         style="fill:none;stroke:#000000;stroke-width:0.1;stroke-linecap:butt;stroke-linejoin:miter;stroke-miterlimit:4;stroke-dasharray:none;stroke-opacity:1"
         d="m 98.56873,144.50857 0.378625,0.69415 0.126208,-0.69415"
         id="path14328" />
      <path
         style="fill:none;stroke:#000000;stroke-width:0.1;stroke-linecap:butt;stroke-linejoin:miter;stroke-miterlimit:4;stroke-dasharray:none;stroke-opacity:1"
         d="m 103.10958,144.22559 0.37863,0.69414 0.1262,-0.69414"
         id="path14328-3" />
      <path
         style="fill:none;stroke:#000000;stroke-width:0.1;stroke-linecap:butt;stroke-linejoin:miter;stroke-miterlimit:4;stroke-dasharray:none;stroke-opacity:1"
         d="m 111.50244,145.17215 0.37862,0.69414 0.12621,-0.69414"
         id="path14328-9" />
      <path
         style="fill:none;stroke:#000000;stroke-width:0.1;stroke-linecap:butt;stroke-linejoin:miter;stroke-miterlimit:4;stroke-dasharray:none;stroke-opacity:1"
         d="m 115.98283,145.67698 0.37863,0.69415 0.12621,-0.69415"
         id="path14328-90" />
      <path
         style="fill:none;stroke:#000000;stroke-width:0.1;stroke-linecap:butt;stroke-linejoin:miter;stroke-miterlimit:4;stroke-dasharray:none;stroke-opacity:1"
         d="m 128.03573,144.35179 0.37863,0.69415 0.12621,-0.69415"
         id="path14328-4" />
      <path
         style="fill:none;stroke:#000000;stroke-width:0.1;stroke-linecap:butt;stroke-linejoin:miter;stroke-miterlimit:4;stroke-dasharray:none;stroke-opacity:1"
         d="m 97.871935,157.85609 0.378625,0.69414 0.126208,-0.69414"
         id="path14328-6" />
      <path
         style="fill:none;stroke:#000000;stroke-width:0.1;stroke-linecap:butt;stroke-linejoin:miter;stroke-miterlimit:4;stroke-dasharray:none;stroke-opacity:1"
         d="m 102.28923,158.17161 0.37862,0.69415 0.12621,-0.69415"
         id="path14328-2" />
      <path
         style="fill:none;stroke:#000000;stroke-width:0.1;stroke-linecap:butt;stroke-linejoin:miter;stroke-miterlimit:4;stroke-dasharray:none;stroke-opacity:1"
         d="m 112.70142,156.97263 0.37862,0.69415 0.12621,-0.69415"
         id="path14328-7" />
      <path
         style="fill:none;stroke:#000000;stroke-width:0.1;stroke-linecap:butt;stroke-linejoin:miter;stroke-miterlimit:4;stroke-dasharray:none;stroke-opacity:1"
         d="m 118.19148,156.78332 0.37862,0.69414 0.12621,-0.69414"
         id="path14328-72" />
      <path
         style="fill:none;stroke:#000000;stroke-width:0.1;stroke-linecap:butt;stroke-linejoin:miter;stroke-miterlimit:4;stroke-dasharray:none;stroke-opacity:1"
         d="m 128.79298,157.9823 0.37863,0.69414 0.12621,-0.69414"
         id="path14328-35" />
      <path
         style="fill:none;stroke:#000000;stroke-width:0.1;stroke-linecap:butt;stroke-linejoin:miter;stroke-miterlimit:4;stroke-dasharray:none;stroke-opacity:1"
         d="m 134.72478,158.10851 0.37862,0.69414 0.12621,-0.69414"
         id="path14328-5" />
      <path
         style="fill:none;stroke:#000000;stroke-width:0.1;stroke-linecap:butt;stroke-linejoin:miter;stroke-miterlimit:4;stroke-dasharray:none;stroke-opacity:1"
         d="m 144.50592,156.90953 0.37863,0.69414 0.12621,-0.69414"
         id="path14328-1" />
      <path
         style="fill:none;stroke:#000000;stroke-width:0.1;stroke-linecap:butt;stroke-linejoin:miter;stroke-miterlimit:4;stroke-dasharray:none;stroke-opacity:1"
         d="m 148.48149,156.97263 0.37862,0.69415 0.12621,-0.69415"
         id="path14328-58" />
      <path
         style="fill:none;stroke:#000000;stroke-width:0.1;stroke-linecap:butt;stroke-linejoin:miter;stroke-miterlimit:4;stroke-dasharray:none;stroke-opacity:1"
         d="m 144.44282,145.55077 0.37862,0.69415 0.12621,-0.69415"
         id="path14328-57" />
      <path
         style="fill:none;stroke:#000000;stroke-width:0.1;stroke-linecap:butt;stroke-linejoin:miter;stroke-miterlimit:4;stroke-dasharray:none;stroke-opacity:1"
         d="m 149.36495,145.61388 0.37862,0.69414 0.12621,-0.69414"
         id="path14328-71" />
      <path
         style="fill:none;stroke:#000000;stroke-width:0.1;stroke-linecap:butt;stroke-linejoin:miter;stroke-miterlimit:4;stroke-dasharray:none;stroke-opacity:1"
         d="m 157.25297,144.35179 0.37862,0.69415 0.12621,-0.69415"
         id="path14328-22" />
      <path
         style="fill:none;stroke:#000000;stroke-width:0.1;stroke-linecap:butt;stroke-linejoin:miter;stroke-miterlimit:4;stroke-dasharray:none;stroke-opacity:1"
         d="m 157.12676,158.0454 0.37862,0.69415 0.12621,-0.69415"
         id="path14328-26" />
      <path
         style="fill:none;stroke:#000000;stroke-width:0.1;stroke-linecap:butt;stroke-linejoin:miter;stroke-miterlimit:4;stroke-dasharray:none;stroke-opacity:1"
         d="m 163.12166,158.10851 0.37862,0.69414 0.12621,-0.69414"
         id="path14328-76" />
      <path
         style="fill:none;stroke:#000000;stroke-width:0.1;stroke-linecap:butt;stroke-linejoin:miter;stroke-miterlimit:4;stroke-dasharray:none;stroke-opacity:1"
         d="m 162.99545,144.22559 0.37862,0.69414 0.12621,-0.69414"
         id="path14328-0" />
      <path
         style="fill:none;stroke:#000000;stroke-width:0.1;stroke-linecap:butt;stroke-linejoin:miter;stroke-miterlimit:4;stroke-dasharray:none;stroke-opacity:1"
         d="m 103.61441,144.22559 0.37863,-0.69415 0.12621,0.69415"
         id="path14328-24" />
      <path
         style="fill:none;stroke:#000000;stroke-width:0.1;stroke-linecap:butt;stroke-linejoin:miter;stroke-miterlimit:4;stroke-dasharray:none;stroke-opacity:1"
         d="m 104.43477,158.10654 0.37862,-0.69414 0.12621,0.69414"
         id="path14328-24-8" />
      <path
         style="fill:none;stroke:#000000;stroke-width:0.1;stroke-linecap:butt;stroke-linejoin:miter;stroke-miterlimit:4;stroke-dasharray:none;stroke-opacity:1"
         d="m 127.5309,158.04344 0.37862,-0.69415 0.12621,0.69415"
         id="path14328-24-0" />
      <path
         style="fill:none;stroke:#000000;stroke-width:0.1;stroke-linecap:butt;stroke-linejoin:miter;stroke-miterlimit:4;stroke-dasharray:none;stroke-opacity:1"
         d="m 132.57923,158.16965 0.37863,-0.69415 0.12621,0.69415"
         id="path14328-24-09" />
      <path
         style="fill:none;stroke:#000000;stroke-width:0.1;stroke-linecap:butt;stroke-linejoin:miter;stroke-miterlimit:4;stroke-dasharray:none;stroke-opacity:1"
         d="m 134.66167,144.34983 0.37863,-0.69414 0.1262,0.69414"
         id="path14328-24-2" />
      <path
         style="fill:none;stroke:#000000;stroke-width:0.1;stroke-linecap:butt;stroke-linejoin:miter;stroke-miterlimit:4;stroke-dasharray:none;stroke-opacity:1"
         d="m 130.81232,144.22362 0.37862,-0.69414 0.12621,0.69414"
         id="path14328-24-01" />
      <path
         style="fill:none;stroke:#000000;stroke-width:0.1;stroke-linecap:butt;stroke-linejoin:miter;stroke-miterlimit:4;stroke-dasharray:none;stroke-opacity:1"
         d="m 118.75942,145.4226 0.37862,-0.69414 0.12621,0.69414"
         id="path14328-24-6" />
      <path
         style="fill:none;stroke:#000000;stroke-width:0.1;stroke-linecap:butt;stroke-linejoin:miter;stroke-miterlimit:4;stroke-dasharray:none;stroke-opacity:1"
         d="m 142.73901,145.4226 0.37862,-0.69414 0.12621,0.69414"
         id="path14328-24-84" />
      <path
         style="fill:none;stroke:#000000;stroke-width:0.1;stroke-linecap:butt;stroke-linejoin:miter;stroke-miterlimit:4;stroke-dasharray:none;stroke-opacity:1"
         d="m 159.46161,144.03431 0.37863,-0.69414 0.12621,0.69414"
         id="path14328-24-3" />
      <path
         style="fill:none;stroke:#000000;stroke-width:0.1;stroke-linecap:butt;stroke-linejoin:miter;stroke-miterlimit:4;stroke-dasharray:none;stroke-opacity:1"
         d="m 161.16543,158.10654 0.37862,-0.69414 0.12621,0.69414"
         id="path14328-24-9" />
      <path
         style="fill:none;stroke:#000000;stroke-width:0.1;stroke-linecap:butt;stroke-linejoin:miter;stroke-miterlimit:4;stroke-dasharray:none;stroke-opacity:1"
         d="m 114.84696,156.84446 0.37862,-0.69415 0.12621,0.69415"
         id="path14328-24-85" />
      <path
         style="fill:none;stroke:#000000;stroke-width:0.1;stroke-linecap:butt;stroke-linejoin:miter;stroke-miterlimit:4;stroke-dasharray:none;stroke-opacity:1"
         d="m 141.60313,156.84446 0.37863,-0.69415 0.1262,0.69415"
         id="path14328-24-21" />
      <path
         id="path2465"
         style="fill:none;stroke:#000000;stroke-width:0.25902;stroke-linecap:butt;stroke-linejoin:miter;stroke-miterlimit:4;stroke-dasharray:none;stroke-opacity:1"
         d="m 173.03407,140.96819 c 0,0 0.46517,-0.51019 0.68822,0.85392 m 0.75259,0.6023 c 0,0 -0.45667,0.17077 -0.53166,0.0743 m -0.7514,-0.7461 c 0,0 0.56864,-0.0704 0.81567,0.3371 0,0 0.24307,0.40443 0.46739,0.33476 m -1.958,-2.08802 c 0,0 0.6636,0.35637 0.69666,1.80444 m -0.94684,-1.34603 c 0,0 0.31034,-0.28542 0.25018,-0.45841 m 0.21118,1.79614 -0.20683,0.01 m 0.20683,-0.01 z m 0.88818,0.96296 c 0,0 0.69691,-0.41501 0.93718,-0.17335 0,0 -0.96147,-0.8602 -1.82536,-0.78961 m -0.37178,-1.09227 c 0,0 0.3408,0.87219 0.0462,1.70922 m -0.71963,-2.59294 c 0,0 0.45393,0.0887 0.6735,0.88372 m -0.65217,-0.15265 c 0,0 0.27626,-0.31988 -0.0214,-0.73107 m -1.50261,1.19378 c 0,0 0.96464,0.0789 1.52396,-0.46271 m -2.94193,1.02327 c 0,0 0.69012,-0.59835 1.41902,-0.56113 m -0.37351,4.53072 c 0,0 -3.31647,-1.99365 -1.04551,-3.96959 m 0.28884,2.30876 c 2.18757,-3.19821 5.28884,-0.62567 5.28884,-0.62567 0,0 -1.79414,-0.12432 -2.19731,1.76669 -0.40317,1.89109 -3.77751,0.38605 -3.09153,-1.14102 z" />
    </g>
    <path
       id="path2465-1"
       style="fill:none;stroke:#000000;stroke-width:0.25902;stroke-linecap:butt;stroke-linejoin:miter;stroke-miterlimit:4;stroke-dasharray:none;stroke-opacity:1"
       d="m 3.3793473,12.485327 c 0,0 -0.46517,-0.51019 -0.68822,0.85392 m -0.75259,0.6023 c 0,0 0.45667,0.17077 0.53166,0.0743 m 0.7514,-0.7461 c 0,0 -0.56864,-0.0704 -0.81567,0.3371 0,0 -0.24307,0.40443 -0.46739,0.33476 m 1.958,-2.08802 c 0,0 -0.6636,0.35637 -0.69666,1.80444 m 0.94684,-1.34603 c 0,0 -0.31034,-0.28542 -0.25018,-0.45841 m -0.21118,1.79614 0.20683,0.01 m -0.20683,-0.01 z m -0.88818,0.96296 c 0,0 -0.69691,-0.41501 -0.93718,-0.17335 0,0 0.96147,-0.8602 1.82536,-0.78961 m 0.37178,-1.09227 c 0,0 -0.3408,0.87219 -0.0462,1.70922 m 0.71963,-2.59294 c 0,0 -0.45393,0.0887 -0.6735,0.88372 m 0.65217,-0.15265 c 0,0 -0.27626,-0.31988 0.0214,-0.73107 m 1.50261,1.19378 c 0,0 -0.96464,0.0789 -1.52396,-0.46271 m 2.94193,1.02327 c 0,0 -0.69012,-0.59835 -1.41902,-0.56113 m 0.37351,4.53072 c 0,0 3.31647,-1.99365 1.04551,-3.96959 m -0.28884,2.30876 c -2.18757,-3.19821 -5.28884,-0.62567 -5.28884,-0.62567 0,0 1.79414,-0.12432 2.19731,1.76669 0.40317,1.89109 3.77751,0.38605 3.09153,-1.14102 z" />
    <path
       id="path2465-1-4"
       style="fill:none;stroke:#000000;stroke-width:0.25902;stroke-linecap:butt;stroke-linejoin:miter;stroke-miterlimit:4;stroke-dasharray:none;stroke-opacity:1"
       d="m 3.1559708,33.614767 c 0,0 -0.46517,0.51019 -0.68822,-0.85392 m -0.75259,-0.6023 c 0,0 0.45667,-0.17077 0.53166,-0.0743 m 0.7514,0.7461 c 0,0 -0.56864,0.0704 -0.81567,-0.3371 0,0 -0.24307,-0.40443 -0.46739,-0.33476 m 1.958,2.08802 c 0,0 -0.6636,-0.35637 -0.69666,-1.80444 m 0.94684,1.34603 c 0,0 -0.31034,0.28542 -0.25018,0.45841 m -0.21118,-1.79614 0.20683,-0.01 m -0.20683,0.01 z m -0.88818,-0.96296 c 0,0 -0.69691,0.41501 -0.93718,0.17335 0,0 0.96147,0.8602 1.82536,0.78961 m 0.37178,1.09227 c 0,0 -0.3408,-0.87219 -0.0462,-1.70922 m 0.71963,2.59294 c 0,0 -0.45393,-0.0887 -0.6735,-0.88372 m 0.65217,0.15265 c 0,0 -0.27626,0.31988 0.0214,0.73107 m 1.50261,-1.19378 c 0,0 -0.96464,-0.0789 -1.52396,0.46271 m 2.94193,-1.02327 c 0,0 -0.69012,0.59835 -1.41902,0.56113 m 0.37351,-4.53072 c 0,0 3.31647,1.99365 1.04551,3.96959 m -0.28884,-2.30876 c -2.18757,3.19821 -5.28884,0.62567 -5.28884,0.62567 0,0 1.79414,0.12432 2.19731,-1.76669 0.40317,-1.89109 3.77751,-0.38605 3.09153,1.14102 z" />
    <path
       id="path2465-1-4-0"
       style="fill:none;stroke:#000000;stroke-width:0.25902;stroke-linecap:butt;stroke-linejoin:miter;stroke-miterlimit:4;stroke-dasharray:none;stroke-opacity:1"
       d="m 84.15634,33.633831 c 0,0 0.46517,0.51019 0.68822,-0.85392 m 0.75259,-0.6023 c 0,0 -0.45667,-0.17077 -0.53166,-0.0743 m -0.7514,0.7461 c 0,0 0.56864,0.0704 0.81567,-0.3371 0,0 0.24307,-0.40443 0.46739,-0.33476 m -1.958,2.08802 c 0,0 0.6636,-0.35637 0.69666,-1.80444 m -0.94684,1.34603 c 0,0 0.31034,0.28542 0.25018,0.45841 m 0.21118,-1.79614 -0.20683,-0.01 m 0.20683,0.01 z m 0.88818,-0.96296 c 0,0 0.69691,0.41501 0.93718,0.17335 0,0 -0.96147,0.8602 -1.82536,0.78961 m -0.37178,1.09227 c 0,0 0.3408,-0.87219 0.0462,-1.70922 m -0.71963,2.59294 c 0,0 0.45393,-0.0887 0.6735,-0.88372 m -0.65217,0.15265 c 0,0 0.27626,0.31988 -0.0214,0.73107 m -1.50261,-1.19378 c 0,0 0.96464,-0.0789 1.52396,0.46271 m -2.94193,-1.02327 c 0,0 0.69012,0.59835 1.41902,0.56113 m -0.37351,-4.53072 c 0,0 -3.31647,1.99365 -1.04551,3.96959 m 0.28884,-2.30876 c 2.18757,3.19821 5.28884,0.62567 5.28884,0.62567 0,0 -1.79414,0.12432 -2.19731,-1.76669 -0.40317,-1.89109 -3.77751,-0.38605 -3.09153,1.14102 z" />
  </g>
</svg>
