<?xml version="1.0" encoding="UTF-8" standalone="no"?>
<!-- Created with Inkscape (http://www.inkscape.org/) -->

<svg
   width="88mm"
   height="30mm"
   viewBox="0 0 88 30"
   version="1.1"
   id="svg5"
   inkscape:version="1.1.1 (3bf5ae0d25, 2021-09-20)"
   sodipodi:docname="greatwomen.svg"
   xmlns:inkscape="http://www.inkscape.org/namespaces/inkscape"
   xmlns:sodipodi="http://sodipodi.sourceforge.net/DTD/sodipodi-0.dtd"
   xmlns="http://www.w3.org/2000/svg"
   xmlns:svg="http://www.w3.org/2000/svg">
  <sodipodi:namedview
     id="namedview7"
     pagecolor="#ffffff"
     bordercolor="#666666"
     borderopacity="1.0"
     inkscape:pageshadow="2"
     inkscape:pageopacity="0.0"
     inkscape:pagecheckerboard="0"
     inkscape:document-units="mm"
     showgrid="false"
     inkscape:zoom="2.096401"
     inkscape:cx="173.1539"
     inkscape:cy="31.482526"
     inkscape:window-width="1023"
     inkscape:window-height="1040"
     inkscape:window-x="2880"
     inkscape:window-y="0"
     inkscape:window-maximized="0"
     inkscape:current-layer="layer1-0"
     units="mm"
     height="296mm" />
  <defs
     id="defs2">
    <rect
       x="-557.8869"
       y="324.47836"
       width="2.6983645"
       height="91.069809"
       id="rect32735" />
    <rect
       x="-547.09344"
       y="303.56601"
       width="92.418991"
       height="91.069809"
       id="rect31365" />
    <rect
       x="-557.8869"
       y="324.47836"
       width="2.6983645"
       height="91.069809"
       id="rect32735-3" />
    <rect
       x="-547.09344"
       y="303.56601"
       width="92.418991"
       height="91.069809"
       id="rect31365-9" />
  </defs>
  <g
     inkscape:label="Layer 1"
     inkscape:groupmode="layer"
     id="layer1">
    <text
       xml:space="preserve"
       transform="scale(0.26458333)"
       id="text31363"
       style="font-style:normal;font-weight:normal;font-size:40px;line-height:1.25;font-family:sans-serif;white-space:pre;shape-inside:url(#rect31365);fill:#000000;fill-opacity:1;stroke:none" />
    <text
       xml:space="preserve"
       transform="scale(0.26458333)"
       id="text32733"
       style="font-style:normal;font-weight:normal;font-size:40px;line-height:1.25;font-family:sans-serif;white-space:pre;shape-inside:url(#rect32735);fill:#000000;fill-opacity:1;stroke:none" />
    <g
       inkscape:label="Layer 1"
       id="layer1-0"
       transform="translate(-88.141745,-128.15992)">
      <text
         xml:space="preserve"
         style="font-style:normal;font-weight:normal;font-size:10.5833px;line-height:1.25;font-family:sans-serif;white-space:pre;inline-size:148.56;fill:#000000;fill-opacity:1;stroke:none;stroke-width:0.264583"
         x="-145.28725"
         y="80.318504"
         id="text2963-5"
         transform="matrix(0.53831657,0,0,0.51568945,175.10365,104.44744)"><tspan
           x="-145.28725"
           y="80.318504"
           id="tspan4012"><tspan
             style="font-size:12.7px;font-family:'Trajan Pro 3';-inkscape-font-specification:'Trajan Pro 3, Normal'"
             id="tspan4010">The Great Women</tspan></tspan></text>
      <text
         xml:space="preserve"
         transform="scale(0.26458333)"
         id="text31363-5"
         style="font-style:normal;font-weight:normal;font-size:40px;line-height:1.25;font-family:sans-serif;white-space:pre;shape-inside:url(#rect31365-9);fill:#000000;fill-opacity:1;stroke:none" />
      <text
         xml:space="preserve"
         transform="scale(0.26458333)"
         id="text32733-1"
         style="font-style:normal;font-weight:normal;font-size:40px;line-height:1.25;font-family:sans-serif;white-space:pre;shape-inside:url(#rect32735-3);fill:#000000;fill-opacity:1;stroke:none" />
      <path
         style="fill:none;stroke:#000000;stroke-width:0.542;stroke-linecap:butt;stroke-linejoin:miter;stroke-miterlimit:4;stroke-dasharray:none;stroke-opacity:1"
         d="m 95.666226,136.80542 c 7.947524,2.54412 14.640184,0 14.640184,0 0,0 0,0 0,0"
         id="path6328" />
      <path
         style="fill:none;stroke:#000000;stroke-width:0.542;stroke-linecap:butt;stroke-linejoin:miter;stroke-miterlimit:4;stroke-dasharray:none;stroke-opacity:1"
         d="m 110.30641,136.80542 c 7.94752,-2.54411 14.64017,0 14.64017,0 0,0 0,0 0,0"
         id="path6328-7" />
      <path
         style="fill:none;stroke:#000000;stroke-width:0.542;stroke-linecap:butt;stroke-linejoin:miter;stroke-miterlimit:4;stroke-dasharray:none;stroke-opacity:1"
         d="m 124.94658,136.80542 c 7.94753,2.54412 14.64018,0 14.64018,0 0,0 0,0 0,0"
         id="path6328-7-8" />
      <path
         style="fill:none;stroke:#000000;stroke-width:0.542;stroke-linecap:butt;stroke-linejoin:miter;stroke-miterlimit:4;stroke-dasharray:none;stroke-opacity:1"
         d="m 139.58676,136.80542 c 7.94752,-2.54411 14.64018,0 14.64018,0 0,0 0,0 0,0"
         id="path6328-7-8-2" />
      <path
         style="fill:none;stroke:#000000;stroke-width:0.542;stroke-linecap:butt;stroke-linejoin:miter;stroke-miterlimit:4;stroke-dasharray:none;stroke-opacity:1"
         d="m 154.22694,136.80542 c 7.94752,2.54412 14.64017,0 14.64017,0 0,0 0,0 0,0"
         id="path6328-7-8-2-1" />
      <path
         style="fill:none;stroke:#000000;stroke-width:0.543;stroke-linecap:butt;stroke-linejoin:miter;stroke-miterlimit:4;stroke-dasharray:none;stroke-opacity:1"
         d="m 95.410454,149.4307 c 7.947526,-2.54412 14.640176,0 14.640176,0 0,0 0,0 0,0"
         id="path6328-76" />
      <path
         style="fill:none;stroke:#000000;stroke-width:0.543;stroke-linecap:butt;stroke-linejoin:miter;stroke-miterlimit:4;stroke-dasharray:none;stroke-opacity:1"
         d="m 110.05063,149.4307 c 7.94753,2.54411 14.64018,0 14.64018,0 0,0 0,0 0,0"
         id="path6328-7-7" />
      <path
         style="fill:none;stroke:#000000;stroke-width:0.543;stroke-linecap:butt;stroke-linejoin:miter;stroke-miterlimit:4;stroke-dasharray:none;stroke-opacity:1"
         d="m 124.69081,149.4307 c 7.94753,-2.54412 14.64018,0 14.64018,0 0,0 0,0 0,0"
         id="path6328-7-8-3" />
      <path
         style="fill:none;stroke:#000000;stroke-width:0.543;stroke-linecap:butt;stroke-linejoin:miter;stroke-miterlimit:4;stroke-dasharray:none;stroke-opacity:1"
         d="m 139.33099,149.4307 c 7.94752,2.54411 14.64017,0 14.64017,0 0,0 0,0 0,0"
         id="path6328-7-8-2-8" />
      <path
         style="fill:none;stroke:#000000;stroke-width:0.543;stroke-linecap:butt;stroke-linejoin:miter;stroke-miterlimit:4;stroke-dasharray:none;stroke-opacity:1"
         d="m 153.97116,149.4307 c 7.94753,-2.54412 14.64018,0 14.64018,0 0,0 0,0 0,0"
         id="path6328-7-8-2-1-0" />
      <ellipse
         style="fill:#000000;fill-opacity:0;stroke-width:1;stroke-linejoin:miter;stroke-miterlimit:4;stroke-dasharray:none"
         id="path7644"
         cx="-0.37862509"
         cy="66.51181"
         rx="7.69871"
         ry="4.4172926" />
      <ellipse
         style="fill:#000000;fill-opacity:0;stroke-width:1;stroke-linejoin:miter;stroke-miterlimit:4;stroke-dasharray:none"
         id="path7646"
         cx="3.533834"
         cy="71.055305"
         rx="2.2717505"
         ry="1.1358752" />
      <path
         style="fill:#000000;fill-opacity:0;stroke-width:1;stroke-linejoin:miter;stroke-miterlimit:4;stroke-dasharray:none"
         id="path7648"
         sodipodi:type="arc"
         sodipodi:cx="12.494627"
         sodipodi:cy="64.49247"
         sodipodi:rx="22.591297"
         sodipodi:ry="6.689043"
         sodipodi:start="0"
         sodipodi:end="0.57320943"
         sodipodi:arc-type="slice"
         d="m 35.085924,64.49247 a 22.591297,6.689043 0 0 1 -3.610886,3.627677 L 12.494627,64.49247 Z" />
      <path
         style="fill:#000000;fill-opacity:0;stroke-width:3.77953;stroke-linejoin:miter;stroke-miterlimit:4;stroke-dasharray:none"
         id="path7650"
         sodipodi:type="arc"
         sodipodi:cx="12.620836"
         sodipodi:cy="57.424805"
         sodipodi:rx="0.75725019"
         sodipodi:ry="1.388292"
         sodipodi:start="0"
         sodipodi:end="0.57320976"
         sodipodi:arc-type="slice"
         d="m 13.378086,57.424805 a 0.75725019,1.388292 0 0 1 -0.121035,0.752914 l -0.636215,-0.752914 z" />
      <path
         style="fill:none;stroke:#000000;stroke-width:0.188172px;stroke-linecap:butt;stroke-linejoin:miter;stroke-opacity:1"
         d="m 95.398224,149.4307 c 7.954166,1.53962 14.652406,0 14.652406,0 0,0 0,0 0,0"
         id="path6328-1" />
      <path
         style="fill:none;stroke:#000000;stroke-width:0.188172px;stroke-linecap:butt;stroke-linejoin:miter;stroke-opacity:1"
         d="m 110.05063,149.4307 c 7.95417,-1.53963 14.65241,0 14.65241,0 0,0 0,0 0,0"
         id="path6328-7-6" />
      <path
         style="fill:none;stroke:#000000;stroke-width:0.188172px;stroke-linecap:butt;stroke-linejoin:miter;stroke-opacity:1"
         d="m 124.70304,149.4307 c 7.95416,1.53962 14.6524,0 14.6524,0 0,0 0,0 0,0"
         id="path6328-7-8-6" />
      <path
         style="fill:none;stroke:#000000;stroke-width:0.188172px;stroke-linecap:butt;stroke-linejoin:miter;stroke-opacity:1"
         d="m 139.35544,149.4307 c 7.95417,-1.53963 14.65241,0 14.65241,0 0,0 0,0 0,0"
         id="path6328-7-8-2-0" />
      <path
         style="fill:none;stroke:#000000;stroke-width:0.188172px;stroke-linecap:butt;stroke-linejoin:miter;stroke-opacity:1"
         d="m 154.00785,149.4307 c 7.95417,1.53962 14.65241,0 14.65241,0 0,0 0,0 0,0"
         id="path6328-7-8-2-1-4" />
      <path
         style="fill:none;stroke:#000000;stroke-width:0.188172px;stroke-linecap:butt;stroke-linejoin:miter;stroke-opacity:1"
         d="m 95.653995,136.80542 c 7.954165,-1.53963 14.652415,0 14.652415,0 0,0 0,0 0,0"
         id="path6328-1-1" />
      <path
         style="fill:none;stroke:#000000;stroke-width:0.188172px;stroke-linecap:butt;stroke-linejoin:miter;stroke-opacity:1"
         d="m 110.30641,136.80542 c 7.95416,1.53963 14.6524,0 14.6524,0 0,0 0,0 0,0"
         id="path6328-7-6-0" />
      <path
         style="fill:none;stroke:#000000;stroke-width:0.188172px;stroke-linecap:butt;stroke-linejoin:miter;stroke-opacity:1"
         d="m 124.95881,136.80542 c 7.95416,-1.53963 14.65241,0 14.65241,0 0,0 0,0 0,0"
         id="path6328-7-8-6-8" />
      <path
         style="fill:none;stroke:#000000;stroke-width:0.188172px;stroke-linecap:butt;stroke-linejoin:miter;stroke-opacity:1"
         d="m 139.61122,136.80542 c 7.95416,1.53963 14.6524,0 14.6524,0 0,0 0,0 0,0"
         id="path6328-7-8-2-0-5" />
      <path
         style="fill:none;stroke:#000000;stroke-width:0.188172px;stroke-linecap:butt;stroke-linejoin:miter;stroke-opacity:1"
         d="m 154.26362,136.80542 c 7.95417,-1.53963 14.65241,0 14.65241,0 0,0 0,0 0,0"
         id="path6328-7-8-2-1-4-8" />
      <path
         style="fill:none;stroke:#000000;stroke-width:0.1;stroke-linecap:butt;stroke-linejoin:miter;stroke-miterlimit:4;stroke-dasharray:none;stroke-opacity:1"
         d="m 98.821147,136.43123 0.378625,0.69415 0.126208,-0.69415"
         id="path14328" />
      <path
         style="fill:none;stroke:#000000;stroke-width:0.1;stroke-linecap:butt;stroke-linejoin:miter;stroke-miterlimit:4;stroke-dasharray:none;stroke-opacity:1"
         d="m 103.362,136.14825 0.37863,0.69414 0.1262,-0.69414"
         id="path14328-3" />
      <path
         style="fill:none;stroke:#000000;stroke-width:0.1;stroke-linecap:butt;stroke-linejoin:miter;stroke-miterlimit:4;stroke-dasharray:none;stroke-opacity:1"
         d="m 111.75486,137.09481 0.37862,0.69414 0.12621,-0.69414"
         id="path14328-9" />
      <path
         style="fill:none;stroke:#000000;stroke-width:0.1;stroke-linecap:butt;stroke-linejoin:miter;stroke-miterlimit:4;stroke-dasharray:none;stroke-opacity:1"
         d="m 116.23525,137.59964 0.37863,0.69415 0.12621,-0.69415"
         id="path14328-90" />
      <path
         style="fill:none;stroke:#000000;stroke-width:0.1;stroke-linecap:butt;stroke-linejoin:miter;stroke-miterlimit:4;stroke-dasharray:none;stroke-opacity:1"
         d="m 128.28815,136.27445 0.37863,0.69415 0.12621,-0.69415"
         id="path14328-4" />
      <path
         style="fill:none;stroke:#000000;stroke-width:0.1;stroke-linecap:butt;stroke-linejoin:miter;stroke-miterlimit:4;stroke-dasharray:none;stroke-opacity:1"
         d="m 98.124352,149.77875 0.378625,0.69414 0.126208,-0.69414"
         id="path14328-6" />
      <path
         style="fill:none;stroke:#000000;stroke-width:0.1;stroke-linecap:butt;stroke-linejoin:miter;stroke-miterlimit:4;stroke-dasharray:none;stroke-opacity:1"
         d="m 102.54165,150.09427 0.37862,0.69415 0.12621,-0.69415"
         id="path14328-2" />
      <path
         style="fill:none;stroke:#000000;stroke-width:0.1;stroke-linecap:butt;stroke-linejoin:miter;stroke-miterlimit:4;stroke-dasharray:none;stroke-opacity:1"
         d="m 112.95384,148.89529 0.37862,0.69415 0.12621,-0.69415"
         id="path14328-7" />
      <path
         style="fill:none;stroke:#000000;stroke-width:0.1;stroke-linecap:butt;stroke-linejoin:miter;stroke-miterlimit:4;stroke-dasharray:none;stroke-opacity:1"
         d="m 118.4439,148.70598 0.37862,0.69414 0.12621,-0.69414"
         id="path14328-72" />
      <path
         style="fill:none;stroke:#000000;stroke-width:0.1;stroke-linecap:butt;stroke-linejoin:miter;stroke-miterlimit:4;stroke-dasharray:none;stroke-opacity:1"
         d="m 129.0454,149.90496 0.37863,0.69414 0.12621,-0.69414"
         id="path14328-35" />
      <path
         style="fill:none;stroke:#000000;stroke-width:0.1;stroke-linecap:butt;stroke-linejoin:miter;stroke-miterlimit:4;stroke-dasharray:none;stroke-opacity:1"
         d="m 134.9772,150.03117 0.37862,0.69414 0.12621,-0.69414"
         id="path14328-5" />
      <path
         style="fill:none;stroke:#000000;stroke-width:0.1;stroke-linecap:butt;stroke-linejoin:miter;stroke-miterlimit:4;stroke-dasharray:none;stroke-opacity:1"
         d="m 144.75834,148.83219 0.37863,0.69414 0.12621,-0.69414"
         id="path14328-1" />
      <path
         style="fill:none;stroke:#000000;stroke-width:0.1;stroke-linecap:butt;stroke-linejoin:miter;stroke-miterlimit:4;stroke-dasharray:none;stroke-opacity:1"
         d="m 148.73391,148.89529 0.37862,0.69415 0.12621,-0.69415"
         id="path14328-58" />
      <path
         style="fill:none;stroke:#000000;stroke-width:0.1;stroke-linecap:butt;stroke-linejoin:miter;stroke-miterlimit:4;stroke-dasharray:none;stroke-opacity:1"
         d="m 144.69524,137.47343 0.37862,0.69415 0.12621,-0.69415"
         id="path14328-57" />
      <path
         style="fill:none;stroke:#000000;stroke-width:0.1;stroke-linecap:butt;stroke-linejoin:miter;stroke-miterlimit:4;stroke-dasharray:none;stroke-opacity:1"
         d="m 149.61737,137.53654 0.37862,0.69414 0.12621,-0.69414"
         id="path14328-71" />
      <path
         style="fill:none;stroke:#000000;stroke-width:0.1;stroke-linecap:butt;stroke-linejoin:miter;stroke-miterlimit:4;stroke-dasharray:none;stroke-opacity:1"
         d="m 157.50539,136.27445 0.37862,0.69415 0.12621,-0.69415"
         id="path14328-22" />
      <path
         style="fill:none;stroke:#000000;stroke-width:0.1;stroke-linecap:butt;stroke-linejoin:miter;stroke-miterlimit:4;stroke-dasharray:none;stroke-opacity:1"
         d="m 157.37918,149.96806 0.37862,0.69415 0.12621,-0.69415"
         id="path14328-26" />
      <path
         style="fill:none;stroke:#000000;stroke-width:0.1;stroke-linecap:butt;stroke-linejoin:miter;stroke-miterlimit:4;stroke-dasharray:none;stroke-opacity:1"
         d="m 163.37408,150.03117 0.37862,0.69414 0.12621,-0.69414"
         id="path14328-76" />
      <path
         style="fill:none;stroke:#000000;stroke-width:0.1;stroke-linecap:butt;stroke-linejoin:miter;stroke-miterlimit:4;stroke-dasharray:none;stroke-opacity:1"
         d="m 163.24787,136.14825 0.37862,0.69414 0.12621,-0.69414"
         id="path14328-0" />
      <path
         style="fill:none;stroke:#000000;stroke-width:0.1;stroke-linecap:butt;stroke-linejoin:miter;stroke-miterlimit:4;stroke-dasharray:none;stroke-opacity:1"
         d="m 103.86683,136.14825 0.37863,-0.69415 0.12621,0.69415"
         id="path14328-24" />
      <path
         style="fill:none;stroke:#000000;stroke-width:0.1;stroke-linecap:butt;stroke-linejoin:miter;stroke-miterlimit:4;stroke-dasharray:none;stroke-opacity:1"
         d="m 104.68719,150.0292 0.37862,-0.69414 0.12621,0.69414"
         id="path14328-24-8" />
      <path
         style="fill:none;stroke:#000000;stroke-width:0.1;stroke-linecap:butt;stroke-linejoin:miter;stroke-miterlimit:4;stroke-dasharray:none;stroke-opacity:1"
         d="m 127.78332,149.9661 0.37862,-0.69415 0.12621,0.69415"
         id="path14328-24-0" />
      <path
         style="fill:none;stroke:#000000;stroke-width:0.1;stroke-linecap:butt;stroke-linejoin:miter;stroke-miterlimit:4;stroke-dasharray:none;stroke-opacity:1"
         d="m 132.83165,150.09231 0.37863,-0.69415 0.12621,0.69415"
         id="path14328-24-09" />
      <path
         style="fill:none;stroke:#000000;stroke-width:0.1;stroke-linecap:butt;stroke-linejoin:miter;stroke-miterlimit:4;stroke-dasharray:none;stroke-opacity:1"
         d="m 134.91409,136.27249 0.37863,-0.69414 0.1262,0.69414"
         id="path14328-24-2" />
      <path
         style="fill:none;stroke:#000000;stroke-width:0.1;stroke-linecap:butt;stroke-linejoin:miter;stroke-miterlimit:4;stroke-dasharray:none;stroke-opacity:1"
         d="m 131.06474,136.14628 0.37862,-0.69414 0.12621,0.69414"
         id="path14328-24-01" />
      <path
         style="fill:none;stroke:#000000;stroke-width:0.1;stroke-linecap:butt;stroke-linejoin:miter;stroke-miterlimit:4;stroke-dasharray:none;stroke-opacity:1"
         d="m 119.01184,137.34526 0.37862,-0.69414 0.12621,0.69414"
         id="path14328-24-6" />
      <path
         style="fill:none;stroke:#000000;stroke-width:0.1;stroke-linecap:butt;stroke-linejoin:miter;stroke-miterlimit:4;stroke-dasharray:none;stroke-opacity:1"
         d="m 142.99143,137.34526 0.37862,-0.69414 0.12621,0.69414"
         id="path14328-24-84" />
      <path
         style="fill:none;stroke:#000000;stroke-width:0.1;stroke-linecap:butt;stroke-linejoin:miter;stroke-miterlimit:4;stroke-dasharray:none;stroke-opacity:1"
         d="m 159.71403,135.95697 0.37863,-0.69414 0.12621,0.69414"
         id="path14328-24-3" />
      <path
         style="fill:none;stroke:#000000;stroke-width:0.1;stroke-linecap:butt;stroke-linejoin:miter;stroke-miterlimit:4;stroke-dasharray:none;stroke-opacity:1"
         d="m 161.41785,150.0292 0.37862,-0.69414 0.12621,0.69414"
         id="path14328-24-9" />
      <path
         style="fill:none;stroke:#000000;stroke-width:0.1;stroke-linecap:butt;stroke-linejoin:miter;stroke-miterlimit:4;stroke-dasharray:none;stroke-opacity:1"
         d="m 115.09938,148.76712 0.37862,-0.69415 0.12621,0.69415"
         id="path14328-24-85" />
      <path
         style="fill:none;stroke:#000000;stroke-width:0.1;stroke-linecap:butt;stroke-linejoin:miter;stroke-miterlimit:4;stroke-dasharray:none;stroke-opacity:1"
         d="m 141.85555,148.76712 0.37863,-0.69415 0.1262,0.69415"
         id="path14328-24-21" />
    </g>
    <path
       id="path2465-1-4"
       style="fill:none;stroke:#000000;stroke-width:0.313617;stroke-linecap:butt;stroke-linejoin:miter;stroke-miterlimit:4;stroke-dasharray:none;stroke-opacity:1"
       d="m 2.5053621,26.252064 c 0,0 -0.5550897,0.626777 -0.8212563,-1.049055 M 0.78603658,24.463073 c 0,0 0.54494642,-0.209794 0.63443242,-0.09128 m 0.8966492,0.916597 c 0,0 -0.6785608,0.08648 -0.9733429,-0.414133 0,0 -0.2900566,-0.49685 -0.55773872,-0.411258 m 2.33649082,2.565167 c 0,0 -0.7918771,-0.437806 -0.8313277,-2.216784 m 1.1298687,1.65362 c 0,0 -0.3703303,0.350643 -0.298541,0.563164 M 2.8705252,24.821578 3.1173365,24.80929 M 2.8705252,24.82158 Z M 1.8106558,23.638566 c 0,0 -0.83162605,0.509847 -1.1183414,0.212964 0,0 1.1473268,1.05677 2.1782108,0.970048 m 0.4436469,1.341873 c 0,0 -0.4066783,-1.0715 -0.05513,-2.099806 M 4.11778,27.249116 c 0,0 -0.5416768,-0.10897 -0.8036908,-1.085665 m 0.7782377,0.187533 c 0,0 -0.3296625,0.392979 0.025537,0.898132 m 1.7930717,-1.466579 c 0,0 -1.1511096,-0.09693 -1.8185488,0.568447 M 7.603006,25.09388 c 0,0 -0.8235235,0.735083 -1.6933234,0.689358 M 6.355394,20.217172 c 0,0 3.95756,2.449233 1.247612,4.876708 M 7.2583311,22.25753 c -2.6104378,3.929054 -6.31119815,0.768645 -6.31119815,0.768645 0,0 2.14095585,0.15273 2.62206055,-2.170409 0.4811047,-2.323236 4.5077209,-0.474269 3.6891376,1.401764 z" />
    <path
       id="path2465-1-4-4"
       style="fill:none;stroke:#000000;stroke-width:0.313617;stroke-linecap:butt;stroke-linejoin:miter;stroke-miterlimit:4;stroke-dasharray:none;stroke-opacity:1"
       d="m 2.5796786,3.4985051 c 0,0 -0.5550898,-0.626777 -0.8212564,1.049055 m -0.89806919,0.739936 c 0,0 0.54494639,0.209794 0.63443239,0.09128 m 0.8966492,-0.916597 c 0,0 -0.6785608,-0.08648 -0.9733429,0.414133 0,0 -0.2900566,0.49685 -0.55773869,0.411258 M 3.1968439,2.7224031 c 0,0 -0.7918772,0.437806 -0.8313278,2.216784 m 1.1298688,-1.65362 c 0,0 -0.3703304,-0.350643 -0.2985411,-0.563164 m -0.2520022,2.206588 0.2468114,0.012288 m -0.2468114,-0.01229 z m -1.0598694,1.183014 c 0,0 -0.831626,-0.509847 -1.11834137,-0.212964 0,0 1.14732677,-1.05677 2.17821077,-0.970048 m 0.443647,-1.341873 c 0,0 -0.4066783,1.0715 -0.05513,2.099806 m 0.8587379,-3.185471 c 0,0 -0.5416768,0.10897 -0.8036909,1.085665 m 0.7782378,-0.187533 c 0,0 -0.3296625,-0.392979 0.025537,-0.898132 m 1.7930716,1.466579 c 0,0 -1.1511095,0.09693 -1.8185488,-0.568447 m 3.5106192,1.257104 c 0,0 -0.8235235,-0.735083 -1.6933233,-0.689358 m 0.4457114,5.566066 c 0,0 3.9575595,-2.449233 1.247612,-4.876708 m -0.344675,2.83635 C 4.7222098,3.5639851 1.0214494,6.7243941 1.0214494,6.7243941 c 0,0 2.1409559,-0.15273 2.6220606,2.170409 0.4811046,2.3232359 4.5077208,0.474269 3.6891375,-1.401764 z" />
    <path
       id="path2465-1-4-4-1"
       style="fill:none;stroke:#000000;stroke-width:0.313617;stroke-linecap:butt;stroke-linejoin:miter;stroke-miterlimit:4;stroke-dasharray:none;stroke-opacity:1"
       d="m 85.538409,3.4908103 c 0,0 0.55509,-0.626777 0.821256,1.049055 m 0.89807,0.739936 c 0,0 -0.544947,0.209794 -0.634433,0.09128 m -0.896649,-0.916597 c 0,0 0.678561,-0.08648 0.973343,0.414133 0,0 0.290057,0.49685 0.557739,0.411258 m -2.336491,-2.565167 c 0,0 0.791877,0.437806 0.831328,2.216784 m -1.129869,-1.65362 c 0,0 0.37033,-0.350643 0.298541,-0.563164 m 0.252002,2.206588 -0.246811,0.012288 m 0.246811,-0.01229 z m 1.05987,1.183014 c 0,0 0.831626,-0.509847 1.118341,-0.212964 0,0 -1.147327,-1.05677 -2.178211,-0.970048 m -0.443647,-1.341873 c 0,0 0.406678,1.0715 0.05513,2.099806 m -0.858738,-3.185471 c 0,0 0.541677,0.10897 0.803691,1.085665 m -0.778238,-0.187533 c 0,0 0.329663,-0.392979 -0.02554,-0.898132 m -1.793071,1.466579 c 0,0 1.151109,0.09693 1.818548,-0.568447 m -3.510619,1.257104 c 0,0 0.823524,-0.735083 1.693324,-0.689358 m -0.445712,5.566066 c 0,0 -3.957559,-2.449233 -1.247612,-4.876708 m 0.344675,2.83635 c 2.610438,-3.929054 6.311198,-0.768645 6.311198,-0.768645 0,0 -2.140956,-0.15273 -2.62206,2.170409 -0.481105,2.3232357 -4.507721,0.474269 -3.689138,-1.401764 z" />
    <path
       id="path2465-1-4-4-7"
       style="fill:none;stroke:#000000;stroke-width:0.313617;stroke-linecap:butt;stroke-linejoin:miter;stroke-miterlimit:4;stroke-dasharray:none;stroke-opacity:1"
       d="m 85.126521,26.507082 c 0,0 0.55509,0.626777 0.821257,-1.049055 m 0.898069,-0.739936 c 0,0 -0.544947,-0.209794 -0.634433,-0.09128 m -0.896649,0.916597 c 0,0 0.678561,0.08648 0.973343,-0.414133 0,0 0.290057,-0.49685 0.557739,-0.411258 m -2.336491,2.565167 c 0,0 0.791877,-0.437806 0.831328,-2.216784 m -1.129869,1.65362 c 0,0 0.37033,0.350643 0.298541,0.563164 m 0.252002,-2.206588 -0.246811,-0.01229 m 0.246811,0.01229 z m 1.05987,-1.183014 c 0,0 0.831626,0.509847 1.118341,0.212964 0,0 -1.147327,1.05677 -2.178211,0.970048 m -0.443647,1.341873 c 0,0 0.406678,-1.0715 0.05513,-2.099806 m -0.858738,3.185471 c 0,0 0.541677,-0.10897 0.803691,-1.085665 M 83.539556,26.606 c 0,0 0.329663,0.392979 -0.02554,0.898132 m -1.793071,-1.466579 c 0,0 1.151109,-0.09693 1.818549,0.568447 m -3.51062,-1.257104 c 0,0 0.823524,0.735083 1.693324,0.689358 m -0.445712,-5.566066 c 0,0 -3.957559,2.449233 -1.247612,4.876708 m 0.344675,-2.83635 c 2.610438,3.929054 6.311198,0.768645 6.311198,0.768645 0,0 -2.140956,0.15273 -2.62206,-2.170409 -0.481105,-2.323236 -4.507721,-0.474269 -3.689138,1.401764 z" />
  </g>
</svg>
